<svg xmlns="http://www.w3.org/2000/svg" width="31" height="31" viewBox="0 0 31 31">
  <g id="Icon_material-group-work" data-name="Icon material-group-work" transform="translate(0.5 0.5)">
    <path id="Icon_material-group-work-2" data-name="Icon material-group-work" d="M18,3A15,15,0,1,0,33,18,15.005,15.005,0,0,0,18,3ZM12,26.25a3.75,3.75,0,1,1,3.75-3.75A3.751,3.751,0,0,1,12,26.25ZM14.25,12A3.75,3.75,0,1,1,18,15.75,3.751,3.751,0,0,1,14.25,12ZM24,26.25a3.75,3.75,0,1,1,3.75-3.75A3.751,3.751,0,0,1,24,26.25Z" transform="translate(-3 -3)" fill="none" stroke="#000" stroke-width="1"/>
  </g>
</svg>
