<svg xmlns="http://www.w3.org/2000/svg" width="244.5" height="43" viewBox="0 0 244.5 43">
  <g id="Component_7_1" data-name="Component 7 – 1" transform="translate(1.5)">
    <path id="Icon_feather-message-square" data-name="Icon feather-message-square" d="M4.5,20.5a2.667,2.667,0,0,0,2.667,2.667h16L28.5,28.5V7.167A2.667,2.667,0,0,0,25.833,4.5H7.167A2.667,2.667,0,0,0,4.5,7.167Z" transform="translate(7.5 12)" fill="#1f5171" stroke="#fff" stroke-linecap="round" stroke-linejoin="round" stroke-width="3"/>
    <text id="Contact_Cisco_" data-name="Contact Cisco " transform="translate(45 31)" font-size="30" font-family="SourceSansPro-Regular, Source Sans Pro"><tspan x="0" y="0">Contact Cisco </tspan></text>
    <path id="Icon_feather-message-square-2" data-name="Icon feather-message-square" d="M31.5,22.5a3,3,0,0,1-3,3h-18l-6,6V7.5a3,3,0,0,1,3-3h21a3,3,0,0,1,3,3Z" transform="translate(-4.5 -1.5)" fill="#1f5171" stroke="#fff" stroke-linecap="round" stroke-linejoin="round" stroke-width="3"/>
    <path id="Icon_material-expand-more" data-name="Icon material-expand-more" d="M24.885,12.885,18,19.755l-6.885-6.87L9,15l9,9,9-9Z" transform="translate(216 4.115)" fill="#1f5171"/>
  </g>
</svg>
