<svg xmlns="http://www.w3.org/2000/svg" width="28" height="31" viewBox="0 0 28 31">
  <g id="Icon_material-event-available" data-name="Icon material-event-available" transform="translate(0.5 0.5)">
    <path id="Icon_material-event-available-2" data-name="Icon material-event-available" d="M24.8,16.59,23.2,15l-7.32,7.32L12.7,19.14l-1.59,1.59,4.77,4.77ZM28.5,4.5H27v-3H24v3H12v-3H9v3H7.5a2.986,2.986,0,0,0-2.985,3L4.5,28.5a3,3,0,0,0,3,3h21a3.009,3.009,0,0,0,3-3V7.5A3.009,3.009,0,0,0,28.5,4.5Zm0,24H7.5V12h21Z" transform="translate(-4.5 -1.5)" fill="#fff" stroke="#fff" stroke-width="1"/>
  </g>
</svg>
