<svg xmlns="http://www.w3.org/2000/svg" width="164.478" height="106.5" viewBox="0 0 164.478 106.5">
  <g id="Component_11_1" data-name="Component 11 – 1" transform="translate(0 1)">
    <g id="Icon_map-grocery-or-supermarket" data-name="Icon map-grocery-or-supermarket" transform="translate(36 -4.32)">
      <path id="Path_16" data-name="Path 16" d="M34.56,33.59c0,3.441-1.289,6.23-2.88,6.23s-2.88-2.789-2.88-6.23,1.289-6.23,2.88-6.23,2.88,2.789,2.88,6.23Z" transform="translate(35.048 26.8)" fill="none" stroke="#1f5171" stroke-width="2"/>
      <path id="Path_17" data-name="Path 17" d="M13.68,33.59c0,3.441-1.289,6.23-2.88,6.23s-2.88-2.789-2.88-6.23,1.289-6.23,2.88-6.23,2.88,2.789,2.88,6.23Z" transform="translate(9.403 26.8)" fill="none" stroke="#1f5171" stroke-width="2"/>
      <path id="Path_18" data-name="Path 18" d="M67.457,46.372H22.635l.957-1.685a3.347,3.347,0,0,0,.334-2.419l-.934-3.9,41.6-2.346a3.218,3.218,0,0,0,2.866-3.275V12.107a3.009,3.009,0,0,0-2.871-3.115H15.959L15.4,6.652A2.922,2.922,0,0,0,12.619,4.32H2.871A3,3,0,0,0,0,7.435,3,3,0,0,0,2.871,10.55H10.4l7.664,32-3.014,5.3A3.342,3.342,0,0,0,14.988,51a2.838,2.838,0,0,0,2.5,1.6H67.457a3.125,3.125,0,0,0,0-6.23Z" fill="none" stroke="#1f5171" stroke-width="2"/>
    </g>
    <text id="How_to_Buy" data-name="How to Buy" transform="translate(0 93.5)" fill="#1f5171" font-size="30" font-family="SourceSansPro-Regular, Source Sans Pro"><tspan x="0" y="0">How to Buy</tspan></text>
    <path id="Icon_metro-expand-more" data-name="Icon metro-expand-more" d="M23.888,13.605,17.995,19.5,12.1,13.605l-1.819,1.819,7.712,7.712,7.712-7.712Z" transform="translate(141.341 103.26) rotate(-90)" fill="#1f5171"/>
  </g>
</svg>
