<svg xmlns="http://www.w3.org/2000/svg" width="30.109" height="25.75" viewBox="0 0 30.109 25.75">
  <g id="Icon_ionic-ios-log-in" data-name="Icon ionic-ios-log-in" transform="translate(0.5 0.5)">
    <path id="Path_6" data-name="Path 6" d="M29.32,5.625H9.633A3.235,3.235,0,0,0,6.4,8.859a.984.984,0,0,0,1.969,0A1.269,1.269,0,0,1,9.633,7.594H29.32a1.269,1.269,0,0,1,1.266,1.266V27.141a1.269,1.269,0,0,1-1.266,1.266H9.633a1.269,1.269,0,0,1-1.266-1.266.984.984,0,0,0-1.969,0,3.235,3.235,0,0,0,3.234,3.234H29.32a3.235,3.235,0,0,0,3.234-3.234V8.859A3.235,3.235,0,0,0,29.32,5.625Z" transform="translate(-3.445 -5.625)" fill="none" stroke="#000" stroke-width="1"/>
    <path id="Path_7" data-name="Path 7" d="M15.75,23.5a.993.993,0,0,0,0,1.392l.007.007a1.017,1.017,0,0,0,.689.274.95.95,0,0,0,.7-.288L22.95,19.09a1.381,1.381,0,0,0,0-2.053L17,11.1a.978.978,0,0,0-.7-.288.961.961,0,0,0-.7.288.98.98,0,0,0,0,1.392l4.584,4.514H4.43a.984.984,0,0,0,0,1.969H20.222Z" transform="translate(-3.445 -5.625)" fill="none" stroke="#000" stroke-width="1"/>
  </g>
</svg>
