<svg xmlns="http://www.w3.org/2000/svg" width="240.5" height="115.5" viewBox="0 0 240.5 115.5">
  <g id="Component_9_1" data-name="Component 9 – 1" transform="translate(0 1.5)">
    <g id="Icon_feather-server" data-name="Icon feather-server" transform="translate(100 -3)">
      <path id="Path_12" data-name="Path 12" d="M6,3H30a3,3,0,0,1,3,3v6a3,3,0,0,1-3,3H6a3,3,0,0,1-3-3V6A3,3,0,0,1,6,3Z" fill="none" stroke="#1f5171" stroke-linecap="round" stroke-linejoin="round" stroke-width="3"/>
      <path id="Path_13" data-name="Path 13" d="M6,21H30a3,3,0,0,1,3,3v6a3,3,0,0,1-3,3H6a3,3,0,0,1-3-3V24a3,3,0,0,1,3-3Z" fill="none" stroke="#1f5171" stroke-linecap="round" stroke-linejoin="round" stroke-width="3"/>
      <path id="Path_14" data-name="Path 14" d="M9,9H9" fill="none" stroke="#1f5171" stroke-linecap="round" stroke-linejoin="round" stroke-width="3"/>
      <path id="Path_15" data-name="Path 15" d="M9,27H9" fill="none" stroke="#1f5171" stroke-linecap="round" stroke-linejoin="round" stroke-width="3"/>
    </g>
    <g id="Icon_feather-server-2" data-name="Icon feather-server" transform="translate(100 32)">
      <path id="Path_12-2" data-name="Path 12" d="M6,3H30a3,3,0,0,1,3,3v6a3,3,0,0,1-3,3H6a3,3,0,0,1-3-3V6A3,3,0,0,1,6,3Z" fill="none" stroke="#1f5171" stroke-linecap="round" stroke-linejoin="round" stroke-width="3"/>
      <path id="Path_13-2" data-name="Path 13" d="M6,21H30a3,3,0,0,1,3,3v6a3,3,0,0,1-3,3H6a3,3,0,0,1-3-3V24a3,3,0,0,1,3-3Z" fill="none" stroke="#1f5171" stroke-linecap="round" stroke-linejoin="round" stroke-width="3"/>
      <path id="Path_14-2" data-name="Path 14" d="M9,9H9" fill="none" stroke="#1f5171" stroke-linecap="round" stroke-linejoin="round" stroke-width="3"/>
      <path id="Path_15-2" data-name="Path 15" d="M9,27H9" fill="none" stroke="#1f5171" stroke-linecap="round" stroke-linejoin="round" stroke-width="3"/>
    </g>
    <text id="Useful_Resources" data-name="Useful Resources" transform="translate(0 102)" fill="#1f5171" font-size="30" font-family="SourceSansPro-Regular, Source Sans Pro"><tspan x="0" y="0">Useful Resources</tspan></text>
    <path id="Icon_material-expand-more" data-name="Icon material-expand-more" d="M24.885,12.885,18,19.755l-6.885-6.87L9,15l9,9,9-9Z" transform="translate(213.5 74.057)" fill="#1f5171"/>
  </g>
</svg>
